<?xml version="1.0" encoding="UTF-8"?>
<svg version="1.1" xmlns="http://www.w3.org/2000/svg" width="36" height="36">
<path d="M0 0 C0.66 0 1.32 0 2 0 C2 0.66 2 1.32 2 2 C2.66 2 3.32 2 4 2 C4 2.66 4 3.32 4 4 C4.66 4 5.32 4 6 4 C6 4.66 6 5.32 6 6 C6.66 6 7.32 6 8 6 C8 6.66 8 7.32 8 8 C8.66 8 9.32 8 10 8 C10 8.66 10 9.32 10 10 C10.66 10 11.32 10 12 10 C12 11.32 12 12.64 12 14 C12.66 14 13.32 14 14 14 C14 15.98 14 17.96 14 20 C14.66 20 15.32 20 16 20 C16 22.64 16 25.28 16 28 C12.04 28 8.08 28 4 28 C4 27.34 4 26.68 4 26 C2.02 26 0.04 26 -2 26 C-2 25.34 -2 24.68 -2 24 C-2.66 24 -3.32 24 -4 24 C-4 23.34 -4 22.68 -4 22 C-4.66 22 -5.32 22 -6 22 C-6 20.68 -6 19.36 -6 18 C-6.66 18 -7.32 18 -8 18 C-8 12.72 -8 7.44 -8 2 C-7.34 2 -6.68 2 -6 2 C-6 2.66 -6 3.32 -6 4 C-4.02 4 -2.04 4 0 4 C0 2.68 0 1.36 0 0 Z " fill="#F9C9D3" transform="translate(8,8)"/>
<path d="M0 0 C0.66 0 1.32 0 2 0 C2 0.66 2 1.32 2 2 C2.66 2 3.32 2 4 2 C4 1.34 4 0.68 4 0 C4.66 0 5.32 0 6 0 C6 0.66 6 1.32 6 2 C6.66 2 7.32 2 8 2 C8 2.66 8 3.32 8 4 C8.66 4 9.32 4 10 4 C10 6.64 10 9.28 10 12 C9.34 12 8.68 12 8 12 C8 13.32 8 14.64 8 16 C7.34 16 6.68 16 6 16 C6 16.66 6 17.32 6 18 C5.34 18 4.68 18 4 18 C4 18.66 4 19.32 4 20 C3.34 20 2.68 20 2 20 C2 20.66 2 21.32 2 22 C0.68 22 -0.64 22 -2 22 C-2 21.34 -2 20.68 -2 20 C-2.66 20 -3.32 20 -4 20 C-4 18.68 -4 17.36 -4 16 C-4.66 16 -5.32 16 -6 16 C-6 13.36 -6 10.72 -6 8 C-5.34 8 -4.68 8 -4 8 C-4 6.68 -4 5.36 -4 4 C-3.34 4 -2.68 4 -2 4 C-2 3.34 -2 2.68 -2 2 C-1.34 2 -0.68 2 0 2 C0 1.34 0 0.68 0 0 Z " fill="#F8C8D2" transform="translate(26,0)"/>
<path d="M0 0 C0.66 0 1.32 0 2 0 C2 0.66 2 1.32 2 2 C2.66 2 3.32 2 4 2 C4 2.66 4 3.32 4 4 C3.34 4 2.68 4 2 4 C2 5.32 2 6.64 2 8 C2.66 8 3.32 8 4 8 C4 9.32 4 10.64 4 12 C4.66 12 5.32 12 6 12 C6 13.98 6 15.96 6 18 C7.98 18 9.96 18 12 18 C12 18.66 12 19.32 12 20 C13.32 20 14.64 20 16 20 C16 18.68 16 17.36 16 16 C16.66 16 17.32 16 18 16 C18 16.66 18 17.32 18 18 C18.66 18 19.32 18 20 18 C20 16.02 20 14.04 20 12 C20.66 12 21.32 12 22 12 C22 13.98 22 15.96 22 18 C22.66 18 23.32 18 24 18 C24 20.64 24 23.28 24 26 C20.04 26 16.08 26 12 26 C12 25.34 12 24.68 12 24 C10.02 24 8.04 24 6 24 C6 23.34 6 22.68 6 22 C5.34 22 4.68 22 4 22 C4 21.34 4 20.68 4 20 C3.34 20 2.68 20 2 20 C2 18.68 2 17.36 2 16 C1.34 16 0.68 16 0 16 C0 10.72 0 5.44 0 0 Z " fill="#E87891" transform="translate(0,10)"/>
<path d="M0 0 C0.66 0 1.32 0 2 0 C2 0.66 2 1.32 2 2 C2.66 2 3.32 2 4 2 C4 4.64 4 7.28 4 10 C3.34 10 2.68 10 2 10 C2 11.32 2 12.64 2 14 C1.34 14 0.68 14 0 14 C0 14.66 0 15.32 0 16 C-0.66 16 -1.32 16 -2 16 C-2 16.66 -2 17.32 -2 18 C-2.66 18 -3.32 18 -4 18 C-4 18.66 -4 19.32 -4 20 C-5.32 20 -6.64 20 -8 20 C-8 19.34 -8 18.68 -8 18 C-8.66 18 -9.32 18 -10 18 C-10 16.68 -10 15.36 -10 14 C-10.66 14 -11.32 14 -12 14 C-12 11.36 -12 8.72 -12 6 C-11.34 6 -10.68 6 -10 6 C-10 7.98 -10 9.96 -10 12 C-9.34 12 -8.68 12 -8 12 C-8 12.66 -8 13.32 -8 14 C-6.02 14 -4.04 14 -2 14 C-2 12.68 -2 11.36 -2 10 C-1.34 10 -0.68 10 0 10 C0 6.7 0 3.4 0 0 Z " fill="#DC778D" transform="translate(32,2)"/>
<path d="M0 0 C0.66 0 1.32 0 2 0 C2 0.66 2 1.32 2 2 C2.66 2 3.32 2 4 2 C4 2.66 4 3.32 4 4 C3.34 4 2.68 4 2 4 C2 5.32 2 6.64 2 8 C2.66 8 3.32 8 4 8 C4 9.32 4 10.64 4 12 C4.66 12 5.32 12 6 12 C6 15.3 6 18.6 6 22 C5.34 22 4.68 22 4 22 C4 21.34 4 20.68 4 20 C3.34 20 2.68 20 2 20 C2 18.68 2 17.36 2 16 C1.34 16 0.68 16 0 16 C0 10.72 0 5.44 0 0 Z " fill="#FB89A3" transform="translate(0,10)"/>
<path d="M0 0 C0.66 0 1.32 0 2 0 C2 2.64 2 5.28 2 8 C-1.96 8 -5.92 8 -10 8 C-10 7.34 -10 6.68 -10 6 C-6.7 6 -3.4 6 0 6 C0 4.02 0 2.04 0 0 Z " fill="#BD566D" transform="translate(22,28)"/>
<path d="M0 0 C1.98 0 3.96 0 6 0 C6 0.66 6 1.32 6 2 C7.98 2 9.96 2 12 2 C12 2.66 12 3.32 12 4 C8.04 4 4.08 4 0 4 C0 2.68 0 1.36 0 0 Z " fill="#FB89A3" transform="translate(6,28)"/>
<path d="M0 0 C0.66 0 1.32 0 2 0 C2 0.66 2 1.32 2 2 C2.66 2 3.32 2 4 2 C4 2.66 4 3.32 4 4 C3.34 4 2.68 4 2 4 C2 7.96 2 11.92 2 16 C1.34 16 0.68 16 0 16 C0 10.72 0 5.44 0 0 Z " fill="#BD566D" transform="translate(0,10)"/>
<path d="M0 0 C0.66 0 1.32 0 2 0 C2 0.66 2 1.32 2 2 C2.66 2 3.32 2 4 2 C4 4.64 4 7.28 4 10 C2.68 10 1.36 10 0 10 C0 6.7 0 3.4 0 0 Z " fill="#DD7F94" transform="translate(32,2)"/>
<path d="M0 0 C1.32 0 2.64 0 4 0 C4 1.98 4 3.96 4 6 C3.34 6 2.68 6 2 6 C2 5.34 2 4.68 2 4 C1.34 4 0.68 4 0 4 C0 2.68 0 1.36 0 0 Z " fill="#D4647D" transform="translate(2,26)"/>
<path d="M0 0 C1.32 0 2.64 0 4 0 C4 0.66 4 1.32 4 2 C4.66 2 5.32 2 6 2 C6 2.66 6 3.32 6 4 C4.02 4 2.04 4 0 4 C0 2.68 0 1.36 0 0 Z " fill="#E89DAD" transform="translate(4,12)"/>
</svg>
