<svg width="609" height="608" viewBox="0 0 609 608" fill="none" xmlns="http://www.w3.org/2000/svg">
<rect width="609" height="608" rx="304" fill="#DBCFF9"/>
<path d="M551.152 220.3L462.82 131.965C439.776 108.922 408.522 95.9767 375.934 95.9771H232.066C199.477 95.9767 168.223 108.922 145.18 131.965L56.8477 220.3C51.1826 225.966 48 233.65 48 241.662C48 249.674 51.1826 257.357 56.8477 263.023L81.5227 287.7C84.3276 290.505 87.6576 292.73 91.3224 294.248C94.9873 295.766 98.9153 296.548 102.882 296.548C106.849 296.548 110.777 295.766 114.442 294.248C118.107 292.73 121.437 290.505 124.242 287.7L181.168 230.774V485.121C181.168 490.091 182.147 495.012 184.049 499.604C185.951 504.196 188.739 508.368 192.254 511.882C195.768 515.396 199.941 518.184 204.532 520.085C209.124 521.987 214.046 522.965 219.016 522.965H388.984C399.021 522.965 408.646 518.978 415.743 511.881C422.841 504.784 426.828 495.158 426.828 485.121V230.77L483.754 287.7C489.419 293.365 497.103 296.548 505.115 296.548C513.127 296.548 520.811 293.365 526.477 287.7L551.153 263.024C553.958 260.219 556.184 256.889 557.703 253.223C559.221 249.558 560.003 245.629 560.002 241.662C560.002 237.694 559.221 233.766 557.702 230.101C556.183 226.435 553.958 223.105 551.152 220.3Z" fill="#924BD2"/>
<path d="M253.656 95.9771H232.066C199.477 95.9767 168.223 108.922 145.18 131.965L56.8477 220.3C51.1826 225.966 48 233.65 48 241.662C48 249.674 51.1826 257.357 56.8477 263.023L81.5227 287.7C84.3276 290.505 87.6576 292.73 91.3224 294.248C94.9873 295.766 98.9153 296.548 102.882 296.548C106.849 296.548 110.777 295.766 114.442 294.248C118.107 292.73 121.437 290.505 124.242 287.7L181.168 230.774V485.121C181.168 490.091 182.147 495.012 184.049 499.604C185.951 504.196 188.739 508.368 192.254 511.882C195.768 515.396 199.941 518.184 204.532 520.085C209.124 521.987 214.046 522.965 219.016 522.965H295.746C234.652 450.633 240.816 219.481 253.656 95.9771Z" fill="#562A79"/>
<path d="M362.48 142.133L304 201.066L245.52 142.133L231.8 95.9771H376.2L362.48 142.133Z" fill="#562A79"/>
<path d="M329.382 270.625C329.382 220.18 371.682 137.902 403.089 100.289C404.072 99.1014 404.695 97.6588 404.888 96.1298C405.08 94.6007 404.834 93.0485 404.176 91.6546C403.519 90.2606 402.479 89.0827 401.176 88.2584C399.874 87.4341 398.364 86.9976 396.823 86.9999H382.784C376.683 86.9825 370.654 88.323 365.135 90.9241C359.616 93.5253 354.744 97.322 350.874 102.039C319.628 140.402 278.612 220.949 278.612 270.625H329.382Z" fill="#FCF2D0"/>
<path d="M317.792 176.258C315.897 172.09 313.917 167.922 311.878 163.785C293.351 200.004 278.612 240.855 278.612 270.625H329.382C329.382 257.801 332.128 242.918 336.722 227.234C331.727 209.782 325.399 192.74 317.792 176.258Z" fill="#F6E3A3"/>
<path d="M278.613 270.625C278.613 220.18 236.32 137.902 204.913 100.289C203.931 99.1016 203.307 97.6593 203.114 96.1305C202.922 94.6018 203.168 93.0497 203.825 91.6559C204.482 90.2621 205.522 89.0841 206.824 88.2596C208.126 87.4351 209.635 86.9982 211.176 86.9999H225.215C231.316 86.9821 237.344 88.3224 242.863 90.9236C248.382 93.5248 253.252 97.3217 257.121 102.039C288.367 140.402 329.387 220.949 329.387 270.625H278.613Z" fill="#FCF2D0"/>
<path d="M434.723 341.535H173.277C169.849 341.535 166.562 340.174 164.138 337.751C161.714 335.327 160.351 332.041 160.351 328.613V283.547C160.351 280.119 161.714 276.833 164.138 274.409C166.562 271.986 169.849 270.625 173.277 270.625H434.723C438.15 270.625 441.437 271.986 443.862 274.409C446.286 276.833 447.648 280.119 447.649 283.547V328.613C447.648 332.041 446.286 335.327 443.862 337.751C441.437 340.174 438.15 341.535 434.723 341.535Z" fill="#F6E3A3"/>
<path d="M426.827 401.289C416.96 405.121 403.987 413.363 393.527 422.113C391.117 424.145 389.182 426.681 387.858 429.542C386.535 432.403 385.855 435.52 385.867 438.672V481.652H426.828L426.827 401.289Z" fill="#F6E3A3"/>
<path d="M326.633 427.586C327.352 427.821 328.123 427.852 328.859 427.677C329.596 427.501 330.269 427.124 330.805 426.589C331.34 426.054 331.717 425.381 331.894 424.645C332.07 423.908 332.039 423.138 331.805 422.418C329.395 414.957 327.086 404.543 331.188 400.441C336.961 394.668 360.988 407.711 378.211 422.113C380.62 424.145 382.554 426.681 383.877 429.543C385.199 432.404 385.879 435.52 385.867 438.672V481.652H342.891C339.738 481.663 336.621 480.982 333.76 479.659C330.898 478.336 328.362 476.401 326.329 473.992C311.929 456.773 298.888 432.742 304.657 426.969C308.758 422.867 319.176 425.176 326.633 427.586Z" fill="#FCF2D0"/>
<path d="M326.328 489.309C317.476 499.895 309.141 513.055 305.371 522.965H385.871V481.648H342.891C339.738 481.637 336.621 482.317 333.76 483.641C330.898 484.964 328.361 486.899 326.328 489.309Z" fill="#F6E3A3"/>
<path d="M385.867 481.648V522.964H388.984C393.954 522.964 398.875 521.986 403.467 520.084C408.059 518.182 412.231 515.395 415.745 511.881C419.259 508.366 422.047 504.194 423.948 499.603C425.85 495.011 426.829 490.09 426.828 485.12V481.647L385.867 481.648Z" fill="#FCF2D0"/>
<path d="M404.452 481.648C404.452 485.324 403.362 488.917 401.32 491.974C399.278 495.03 396.375 497.412 392.979 498.819C389.583 500.226 385.846 500.594 382.24 499.877C378.635 499.16 375.323 497.39 372.724 494.79C370.125 492.191 368.355 488.879 367.637 485.274C366.92 481.669 367.288 477.932 368.695 474.535C370.102 471.139 372.484 468.237 375.54 466.194C378.597 464.152 382.19 463.062 385.866 463.062C388.307 463.062 390.724 463.543 392.979 464.477C395.234 465.41 397.283 466.78 399.009 468.505C400.735 470.231 402.104 472.28 403.038 474.535C403.972 476.79 404.452 479.207 404.452 481.648Z" fill="#924BD2"/>
<path d="M270.456 490.875C269.471 490.875 268.496 490.681 267.587 490.303C266.677 489.926 265.851 489.373 265.156 488.675L260.32 483.839C258.954 482.424 258.198 480.53 258.215 478.563C258.232 476.597 259.021 474.716 260.412 473.325C261.802 471.935 263.683 471.146 265.65 471.129C267.616 471.112 269.511 471.868 270.925 473.234L275.761 478.07C276.809 479.119 277.522 480.455 277.811 481.909C278.1 483.363 277.951 484.87 277.384 486.239C276.817 487.609 275.857 488.78 274.625 489.604C273.392 490.428 271.944 490.869 270.461 490.87L270.456 490.875Z" fill="#FCF2D0"/>
<path d="M265.62 471.4C264.138 471.399 262.689 470.958 261.457 470.134C260.225 469.31 259.265 468.139 258.697 466.769C258.13 465.4 257.982 463.893 258.271 462.439C258.56 460.985 259.273 459.649 260.32 458.6L265.156 453.764C266.563 452.357 268.47 451.567 270.459 451.566C272.449 451.566 274.357 452.356 275.763 453.762C277.17 455.168 277.961 457.076 277.961 459.065C277.962 461.054 277.172 462.962 275.765 464.369L270.929 469.205C270.233 469.903 269.405 470.456 268.494 470.833C267.583 471.209 266.606 471.402 265.62 471.4Z" fill="#FCF2D0"/>
<path d="M250.98 471.4C249.995 471.401 249.02 471.207 248.11 470.829C247.201 470.452 246.375 469.898 245.68 469.2L240.844 464.364C239.437 462.957 238.646 461.049 238.646 459.06C238.646 457.07 239.437 455.162 240.844 453.755C242.251 452.348 244.159 451.558 246.148 451.558C248.138 451.558 250.046 452.348 251.453 453.755L256.289 458.591C257.336 459.64 258.049 460.976 258.338 462.43C258.627 463.884 258.479 465.391 257.912 466.76C257.344 468.13 256.384 469.301 255.152 470.125C253.92 470.949 252.471 471.39 250.989 471.391L250.98 471.4Z" fill="#FCF2D0"/>
<path d="M246.145 490.875C244.662 490.874 243.214 490.433 241.981 489.609C240.749 488.785 239.789 487.614 239.222 486.244C238.655 484.875 238.506 483.368 238.795 481.914C239.084 480.46 239.797 479.124 240.845 478.075L245.681 473.239C247.095 471.873 248.99 471.117 250.956 471.134C252.923 471.151 254.804 471.94 256.194 473.33C257.585 474.721 258.374 476.602 258.391 478.569C258.408 480.535 257.652 482.43 256.286 483.844L251.45 488.68C250.754 489.378 249.927 489.931 249.017 490.308C248.106 490.685 247.13 490.878 246.145 490.875Z" fill="#FCF2D0"/>
<path d="M274.211 431.859C272.222 431.859 270.314 431.069 268.908 429.662C267.501 428.256 266.711 426.348 266.711 424.359V417.519C266.711 415.53 267.501 413.622 268.908 412.216C270.314 410.809 272.222 410.019 274.211 410.019C276.2 410.019 278.108 410.809 279.514 412.216C280.921 413.622 281.711 415.53 281.711 417.519V424.359C281.711 426.348 280.921 428.256 279.514 429.662C278.108 431.069 276.2 431.859 274.211 431.859Z" fill="#FCF2D0"/>
<path d="M291.4 414.668H284.56C282.57 414.668 280.663 413.878 279.256 412.471C277.85 411.065 277.06 409.157 277.06 407.168C277.06 405.179 277.85 403.271 279.256 401.865C280.663 400.458 282.57 399.668 284.56 399.668H291.4C293.389 399.668 295.296 400.458 296.703 401.865C298.109 403.271 298.9 405.179 298.9 407.168C298.9 409.157 298.109 411.065 296.703 412.471C295.296 413.878 293.389 414.668 291.4 414.668Z" fill="#FCF2D0"/>
<path d="M274.211 404.316C272.222 404.316 270.314 403.526 268.908 402.119C267.501 400.713 266.711 398.805 266.711 396.816V389.976C266.711 387.987 267.501 386.079 268.908 384.673C270.314 383.266 272.222 382.476 274.211 382.476C276.2 382.476 278.108 383.266 279.514 384.673C280.921 386.079 281.711 387.987 281.711 389.976V396.816C281.711 398.805 280.921 400.713 279.514 402.119C278.108 403.526 276.2 404.316 274.211 404.316Z" fill="#FCF2D0"/>
<path d="M263.855 414.668H257.02C255.03 414.668 253.123 413.878 251.716 412.471C250.31 411.065 249.52 409.157 249.52 407.168C249.52 405.179 250.31 403.271 251.716 401.865C253.123 400.458 255.03 399.668 257.02 399.668H263.856C265.845 399.668 267.752 400.458 269.159 401.865C270.565 403.271 271.356 405.179 271.356 407.168C271.356 409.157 270.565 411.065 269.159 412.471C267.752 413.878 265.845 414.668 263.856 414.668H263.855Z" fill="#FCF2D0"/>
</svg>
