<?xml version="1.0" encoding="UTF-8"?>
<svg version="1.1" xmlns="http://www.w3.org/2000/svg" width="36" height="36">
<path d="M0 0 C2.64 0 5.28 0 8 0 C8 1.98 8 3.96 8 6 C9.98 6 11.96 6 14 6 C14 5.34 14 4.68 14 4 C15.32 4 16.64 4 18 4 C18 8.62 18 13.24 18 18 C17.34 18 16.68 18 16 18 C16 19.32 16 20.64 16 22 C15.34 22 14.68 22 14 22 C14 22.66 14 23.32 14 24 C13.34 24 12.68 24 12 24 C12 24.66 12 25.32 12 26 C11.34 26 10.68 26 10 26 C10 26.66 10 27.32 10 28 C9.34 28 8.68 28 8 28 C8 28.66 8 29.32 8 30 C7.34 30 6.68 30 6 30 C6 30.66 6 31.32 6 32 C4.68 32 3.36 32 2 32 C2 32.66 2 33.32 2 34 C0.02 34 -1.96 34 -4 34 C-4 34.66 -4 35.32 -4 36 C-7.96 36 -11.92 36 -16 36 C-16 35.34 -16 34.68 -16 34 C-16.66 34 -17.32 34 -18 34 C-18 28.72 -18 23.44 -18 18 C-17.34 18 -16.68 18 -16 18 C-16 16.68 -16 15.36 -16 14 C-15.34 14 -14.68 14 -14 14 C-14 12.68 -14 11.36 -14 10 C-13.34 10 -12.68 10 -12 10 C-12 9.34 -12 8.68 -12 8 C-11.34 8 -10.68 8 -10 8 C-10 7.34 -10 6.68 -10 6 C-9.34 6 -8.68 6 -8 6 C-8 5.34 -8 4.68 -8 4 C-6.68 4 -5.36 4 -4 4 C-4 3.34 -4 2.68 -4 2 C-2.68 2 -1.36 2 0 2 C0 1.34 0 0.68 0 0 Z " fill="#FDD1DA" transform="translate(18,0)"/>
<path d="M0 0 C1.32 0 2.64 0 4 0 C4 4.62 4 9.24 4 14 C3.34 14 2.68 14 2 14 C2 15.32 2 16.64 2 18 C1.34 18 0.68 18 0 18 C0 18.66 0 19.32 0 20 C-0.66 20 -1.32 20 -2 20 C-2 20.66 -2 21.32 -2 22 C-2.66 22 -3.32 22 -4 22 C-4 22.66 -4 23.32 -4 24 C-4.66 24 -5.32 24 -6 24 C-6 24.66 -6 25.32 -6 26 C-6.66 26 -7.32 26 -8 26 C-8 26.66 -8 27.32 -8 28 C-9.32 28 -10.64 28 -12 28 C-12 28.66 -12 29.32 -12 30 C-13.98 30 -15.96 30 -18 30 C-18 30.66 -18 31.32 -18 32 C-21.96 32 -25.92 32 -30 32 C-30 31.34 -30 30.68 -30 30 C-30.66 30 -31.32 30 -32 30 C-32 24.72 -32 19.44 -32 14 C-31.34 14 -30.68 14 -30 14 C-30 16.64 -30 19.28 -30 22 C-28.68 22 -27.36 22 -26 22 C-26 21.34 -26 20.68 -26 20 C-25.34 20 -24.68 20 -24 20 C-24 21.32 -24 22.64 -24 24 C-22.02 24 -20.04 24 -18 24 C-18 23.34 -18 22.68 -18 22 C-16.68 22 -15.36 22 -14 22 C-14 21.34 -14 20.68 -14 20 C-12.02 20 -10.04 20 -8 20 C-8 19.34 -8 18.68 -8 18 C-7.34 18 -6.68 18 -6 18 C-6 17.34 -6 16.68 -6 16 C-5.34 16 -4.68 16 -4 16 C-4 15.34 -4 14.68 -4 14 C-3.34 14 -2.68 14 -2 14 C-2 13.34 -2 12.68 -2 12 C-1.34 12 -0.68 12 0 12 C0 10.68 0 9.36 0 8 C0.66 8 1.32 8 2 8 C2 6.02 2 4.04 2 2 C1.34 2 0.68 2 0 2 C0 1.34 0 0.68 0 0 Z " fill="#F789A2" transform="translate(32,4)"/>
<path d="M0 0 C0.66 0 1.32 0 2 0 C2 2.64 2 5.28 2 8 C2.66 8 3.32 8 4 8 C4 9.32 4 10.64 4 12 C4.66 12 5.32 12 6 12 C6 12.66 6 13.32 6 14 C7.98 14 9.96 14 12 14 C12 13.34 12 12.68 12 12 C15.96 12 19.92 12 24 12 C24 12.66 24 13.32 24 14 C22.68 14 21.36 14 20 14 C20 14.66 20 15.32 20 16 C18.02 16 16.04 16 14 16 C14 16.66 14 17.32 14 18 C10.04 18 6.08 18 2 18 C2 17.34 2 16.68 2 16 C1.34 16 0.68 16 0 16 C0 10.72 0 5.44 0 0 Z " fill="#D5657E" transform="translate(0,18)"/>
<path d="M0 0 C0.66 0 1.32 0 2 0 C2 1.98 2 3.96 2 6 C1.34 6 0.68 6 0 6 C0 7.98 0 9.96 0 12 C1.32 12 2.64 12 4 12 C4 13.32 4 14.64 4 16 C2.68 16 1.36 16 0 16 C0 16.66 0 17.32 0 18 C-1.32 18 -2.64 18 -4 18 C-4 14.04 -4 10.08 -4 6 C-3.34 6 -2.68 6 -2 6 C-2 4.68 -2 3.36 -2 2 C-1.34 2 -0.68 2 0 2 C0 1.34 0 0.68 0 0 Z " fill="#F9A5B8" transform="translate(6,8)"/>
<path d="M0 0 C1.32 0 2.64 0 4 0 C4 4.62 4 9.24 4 14 C3.34 14 2.68 14 2 14 C2 15.32 2 16.64 2 18 C1.34 18 0.68 18 0 18 C0 18.66 0 19.32 0 20 C-0.66 20 -1.32 20 -2 20 C-2 17.36 -2 14.72 -2 12 C-1.34 12 -0.68 12 0 12 C0 10.68 0 9.36 0 8 C0.66 8 1.32 8 2 8 C2 6.02 2 4.04 2 2 C1.34 2 0.68 2 0 2 C0 1.34 0 0.68 0 0 Z " fill="#E5768F" transform="translate(32,4)"/>
<path d="M0 0 C2.64 0 5.28 0 8 0 C8 1.98 8 3.96 8 6 C9.98 6 11.96 6 14 6 C14 6.66 14 7.32 14 8 C11.36 8 8.72 8 6 8 C6 6.02 6 4.04 6 2 C4.02 2 2.04 2 0 2 C0 1.34 0 0.68 0 0 Z " fill="#DA8999" transform="translate(18,0)"/>
<path d="M0 0 C0.66 0 1.32 0 2 0 C2 2.64 2 5.28 2 8 C1.34 8 0.68 8 0 8 C0 8.66 0 9.32 0 10 C-1.32 10 -2.64 10 -4 10 C-4 8.68 -4 7.36 -4 6 C-3.34 6 -2.68 6 -2 6 C-2 5.34 -2 4.68 -2 4 C-1.34 4 -0.68 4 0 4 C0 2.68 0 1.36 0 0 Z " fill="#F6B0BF" transform="translate(22,2)"/>
<path d="M0 0 C3.3 0 6.6 0 10 0 C10 0.66 10 1.32 10 2 C8.68 2 7.36 2 6 2 C6 2.66 6 3.32 6 4 C4.02 4 2.04 4 0 4 C0 2.68 0 1.36 0 0 Z " fill="#FFBCCB" transform="translate(8,24)"/>
<path d="M0 0 C1.32 0 2.64 0 4 0 C4 4.62 4 9.24 4 14 C3.34 14 2.68 14 2 14 C2 10.04 2 6.08 2 2 C1.34 2 0.68 2 0 2 C0 1.34 0 0.68 0 0 Z " fill="#BD566D" transform="translate(32,4)"/>
<path d="M0 0 C0.66 0 1.32 0 2 0 C2 1.98 2 3.96 2 6 C0.68 6 -0.64 6 -2 6 C-2 4.68 -2 3.36 -2 2 C-1.34 2 -0.68 2 0 2 C0 1.34 0 0.68 0 0 Z " fill="#E89DAD" transform="translate(6,8)"/>
</svg>
