<?xml version="1.0" encoding="UTF-8"?>
<svg version="1.1" xmlns="http://www.w3.org/2000/svg" width="36" height="36">
<path d="M0 0 C2.64 0 5.28 0 8 0 C8 0.66 8 1.32 8 2 C9.32 2 10.64 2 12 2 C12 2.66 12 3.32 12 4 C12.66 4 13.32 4 14 4 C14 8.62 14 13.24 14 18 C13.34 18 12.68 18 12 18 C12 19.32 12 20.64 12 22 C11.34 22 10.68 22 10 22 C10 22.66 10 23.32 10 24 C9.34 24 8.68 24 8 24 C8 24.66 8 25.32 8 26 C8.66 26 9.32 26 10 26 C10 26.66 10 27.32 10 28 C9.34 28 8.68 28 8 28 C8 28.66 8 29.32 8 30 C6.68 30 5.36 30 4 30 C4 30.66 4 31.32 4 32 C-0.62 32 -5.24 32 -10 32 C-10 32.66 -10 33.32 -10 34 C-10.66 34 -11.32 34 -12 34 C-12 34.66 -12 35.32 -12 36 C-13.98 36 -15.96 36 -18 36 C-18 34.02 -18 32.04 -18 30 C-17.34 30 -16.68 30 -16 30 C-16 25.38 -16 20.76 -16 16 C-15.34 16 -14.68 16 -14 16 C-14 14.02 -14 12.04 -14 10 C-13.34 10 -12.68 10 -12 10 C-12 9.34 -12 8.68 -12 8 C-11.34 8 -10.68 8 -10 8 C-10 7.34 -10 6.68 -10 6 C-9.34 6 -8.68 6 -8 6 C-8 5.34 -8 4.68 -8 4 C-7.34 4 -6.68 4 -6 4 C-6 3.34 -6 2.68 -6 2 C-4.02 2 -2.04 2 0 2 C0 1.34 0 0.68 0 0 Z " fill="#E88CA1" transform="translate(20,0)"/>
<path d="M0 0 C3.96 0 7.92 0 12 0 C12 4.62 12 9.24 12 14 C10.68 14 9.36 14 8 14 C8 14.66 8 15.32 8 16 C7.34 16 6.68 16 6 16 C6 16.66 6 17.32 6 18 C3.36 18 0.72 18 -2 18 C-2 17.34 -2 16.68 -2 16 C-2.66 16 -3.32 16 -4 16 C-4 13.36 -4 10.72 -4 8 C-3.34 8 -2.68 8 -2 8 C-2 6.02 -2 4.04 -2 2 C-1.34 2 -0.68 2 0 2 C0 1.34 0 0.68 0 0 Z " fill="#FBD2DA" transform="translate(14,2)"/>
<path d="M0 0 C1.32 0 2.64 0 4 0 C4 2.64 4 5.28 4 8 C4.66 8 5.32 8 6 8 C6 8.66 6 9.32 6 10 C7.98 10 9.96 10 12 10 C12 10.66 12 11.32 12 12 C12.66 12 13.32 12 14 12 C14 11.34 14 10.68 14 10 C15.98 10 17.96 10 20 10 C20 9.34 20 8.68 20 8 C20.66 8 21.32 8 22 8 C22 8.66 22 9.32 22 10 C23.32 10 24.64 10 26 10 C26 10.66 26 11.32 26 12 C25.34 12 24.68 12 24 12 C24 12.66 24 13.32 24 14 C22.68 14 21.36 14 20 14 C20 14.66 20 15.32 20 16 C15.38 16 10.76 16 6 16 C6 16.66 6 17.32 6 18 C5.34 18 4.68 18 4 18 C4 18.66 4 19.32 4 20 C2.02 20 0.04 20 -2 20 C-2 18.02 -2 16.04 -2 14 C-1.34 14 -0.68 14 0 14 C0 9.38 0 4.76 0 0 Z " fill="#0C5E24" transform="translate(4,16)"/>
<path d="M0 0 C0.66 0 1.32 0 2 0 C2 1.32 2 2.64 2 4 C1.34 4 0.68 4 0 4 C0 6.64 0 9.28 0 12 C0.66 12 1.32 12 2 12 C2 12.66 2 13.32 2 14 C4.64 14 7.28 14 10 14 C10 13.34 10 12.68 10 12 C10.66 12 11.32 12 12 12 C12 11.34 12 10.68 12 10 C12.66 10 13.32 10 14 10 C14 11.32 14 12.64 14 14 C13.34 14 12.68 14 12 14 C12 14.66 12 15.32 12 16 C10.68 16 9.36 16 8 16 C8 16.66 8 17.32 8 18 C6.02 18 4.04 18 2 18 C2 18.66 2 19.32 2 20 C1.34 20 0.68 20 0 20 C0 19.34 0 18.68 0 18 C-0.66 18 -1.32 18 -2 18 C-2 15.36 -2 12.72 -2 10 C-2.66 10 -3.32 10 -4 10 C-4 8.02 -4 6.04 -4 4 C-3.34 4 -2.68 4 -2 4 C-2 3.34 -2 2.68 -2 2 C-1.34 2 -0.68 2 0 2 C0 1.34 0 0.68 0 0 Z " fill="#F9829D" transform="translate(10,6)"/>
<path d="M0 0 C0.66 0 1.32 0 2 0 C2 3.96 2 7.92 2 12 C2.66 12 3.32 12 4 12 C4 12.66 4 13.32 4 14 C9.28 14 14.56 14 20 14 C20 14.66 20 15.32 20 16 C15.38 16 10.76 16 6 16 C6 16.66 6 17.32 6 18 C5.34 18 4.68 18 4 18 C4 18.66 4 19.32 4 20 C2.02 20 0.04 20 -2 20 C-2 18.02 -2 16.04 -2 14 C-1.34 14 -0.68 14 0 14 C0 9.38 0 4.76 0 0 Z " fill="#09531F" transform="translate(4,16)"/>
<path d="M0 0 C0.66 0 1.32 0 2 0 C2 0.66 2 1.32 2 2 C2.66 2 3.32 2 4 2 C4 3.32 4 4.64 4 6 C4.66 6 5.32 6 6 6 C6 5.34 6 4.68 6 4 C7.98 4 9.96 4 12 4 C12 3.34 12 2.68 12 2 C12.66 2 13.32 2 14 2 C14 1.34 14 0.68 14 0 C14.66 0 15.32 0 16 0 C16 1.98 16 3.96 16 6 C14.68 6 13.36 6 12 6 C12 6.66 12 7.32 12 8 C11.34 8 10.68 8 10 8 C10 8.66 10 9.32 10 10 C7.36 10 4.72 10 2 10 C2 9.34 2 8.68 2 8 C1.34 8 0.68 8 0 8 C0 5.36 0 2.72 0 0 Z " fill="#FFBCCB" transform="translate(10,10)"/>
<path d="M0 0 C0.66 0 1.32 0 2 0 C2 0.66 2 1.32 2 2 C3.98 2 5.96 2 8 2 C8 2.66 8 3.32 8 4 C7.34 4 6.68 4 6 4 C6 4.66 6 5.32 6 6 C5.34 6 4.68 6 4 6 C4 5.34 4 4.68 4 4 C3.34 4 2.68 4 2 4 C2 4.66 2 5.32 2 6 C0.02 6 -1.96 6 -4 6 C-4 6.66 -4 7.32 -4 8 C-4.66 8 -5.32 8 -6 8 C-6 7.34 -6 6.68 -6 6 C-7.32 6 -8.64 6 -10 6 C-10 5.34 -10 4.68 -10 4 C-8.02 4 -6.04 4 -4 4 C-4 3.34 -4 2.68 -4 2 C-2.68 2 -1.36 2 0 2 C0 1.34 0 0.68 0 0 Z " fill="#CA4966" transform="translate(22,20)"/>
<path d="M0 0 C0.66 0 1.32 0 2 0 C2 1.32 2 2.64 2 4 C1.34 4 0.68 4 0 4 C0 8.62 0 13.24 0 18 C-0.66 18 -1.32 18 -2 18 C-2 15.36 -2 12.72 -2 10 C-2.66 10 -3.32 10 -4 10 C-4 8.02 -4 6.04 -4 4 C-3.34 4 -2.68 4 -2 4 C-2 3.34 -2 2.68 -2 2 C-1.34 2 -0.68 2 0 2 C0 1.34 0 0.68 0 0 Z " fill="#E57991" transform="translate(10,6)"/>
<path d="M0 0 C2.64 0 5.28 0 8 0 C8 0.66 8 1.32 8 2 C9.32 2 10.64 2 12 2 C12 2.66 12 3.32 12 4 C10.68 4 9.36 4 8 4 C8 7.96 8 11.92 8 16 C7.34 16 6.68 16 6 16 C6 11.38 6 6.76 6 2 C4.02 2 2.04 2 0 2 C0 1.34 0 0.68 0 0 Z " fill="#D58192" transform="translate(20,0)"/>
<path d="M0 0 C0.66 0 1.32 0 2 0 C2 2.64 2 5.28 2 8 C2.66 8 3.32 8 4 8 C4 8.66 4 9.32 4 10 C5.98 10 7.96 10 10 10 C10 10.66 10 11.32 10 12 C8.02 12 6.04 12 4 12 C4 12.66 4 13.32 4 14 C3.34 14 2.68 14 2 14 C2 13.34 2 12.68 2 12 C1.34 12 0.68 12 0 12 C0 8.04 0 4.08 0 0 Z " fill="#1C8C2C" transform="translate(6,16)"/>
<path d="M0 0 C0.66 0 1.32 0 2 0 C2 1.32 2 2.64 2 4 C3.32 4 4.64 4 6 4 C6 3.34 6 2.68 6 2 C6.66 2 7.32 2 8 2 C8 3.32 8 4.64 8 6 C5.36 6 2.72 6 0 6 C0 4.02 0 2.04 0 0 Z " fill="#D76E85" transform="translate(24,16)"/>
<path d="M0 0 C0.66 0 1.32 0 2 0 C2 0.66 2 1.32 2 2 C3.32 2 4.64 2 6 2 C6 2.66 6 3.32 6 4 C4.68 4 3.36 4 2 4 C2 5.32 2 6.64 2 8 C1.34 8 0.68 8 0 8 C0 5.36 0 2.72 0 0 Z " fill="#FC8DA6" transform="translate(10,18)"/>
<path d="M0 0 C0.66 0 1.32 0 2 0 C2 1.32 2 2.64 2 4 C3.32 4 4.64 4 6 4 C6 4.66 6 5.32 6 6 C4.02 6 2.04 6 0 6 C0 4.02 0 2.04 0 0 Z " fill="#084D1C" transform="translate(2,30)"/>
<path d="M0 0 C0.66 0 1.32 0 2 0 C2 1.32 2 2.64 2 4 C-0.64 4 -3.28 4 -6 4 C-6 3.34 -6 2.68 -6 2 C-4.02 2 -2.04 2 0 2 C0 1.34 0 0.68 0 0 Z " fill="#1C8C2C" transform="translate(24,24)"/>
</svg>
