<svg width="1264" height="192" viewBox="0 0 1264 192" fill="none" xmlns="http://www.w3.org/2000/svg">
<path d="M249.685 1.00716C243.685 2.60716 237.018 6.34049 233.418 10.2072C226.218 18.3405 222.618 29.1405 213.152 72.4738C207.018 100.74 204.485 111.94 201.418 123.807C196.885 141.274 195.685 168.341 199.018 175.674C202.618 183.807 208.085 187.141 217.685 187.141C224.618 187.007 226.885 186.341 234.352 181.807C245.818 174.741 256.485 161.807 261.552 149.007C263.552 143.541 267.285 130.474 269.818 119.807C272.218 109.14 276.085 93.0072 278.352 83.8072C289.685 37.8072 290.752 30.0738 287.018 20.0738C285.685 16.6072 283.152 12.2072 281.418 10.2072C275.018 3.40716 258.752 -1.25951 249.685 1.00716Z" fill="#C094EC"/>
<path d="M349.018 1.67383C336.485 4.47383 327.952 10.6072 323.952 19.8072C320.352 28.0738 311.818 64.3405 300.352 118.474C293.685 150.607 293.818 169.274 300.752 177.807C306.485 184.741 311.952 187.141 321.685 187.141C337.685 187.141 344.485 181.407 359.018 155.807C374.618 128.34 387.152 118.74 413.552 113.807C424.218 111.807 425.818 111.807 436.085 113.94C456.485 118.074 469.285 127.407 477.552 144.474C480.218 149.807 482.352 155.141 482.352 156.207C482.352 160.074 487.818 173.674 491.152 178.074C495.685 183.941 500.885 186.474 508.885 186.474C514.218 186.474 516.485 185.674 521.152 182.074C524.218 179.807 528.618 174.874 530.618 171.274C542.218 151.674 565.018 64.0738 565.018 39.4072C565.018 26.7405 558.752 14.7405 548.618 8.07383C543.552 4.74049 541.952 4.47383 531.018 4.60716C512.618 4.87383 502.618 9.67383 467.685 35.0072C448.752 48.8738 445.552 50.4738 438.352 50.4738C428.085 50.4738 420.218 44.8738 410.352 30.4738C399.285 14.3405 384.085 3.67383 368.218 1.14049C358.752 -0.459507 358.352 -0.459507 349.018 1.67383Z" fill="#C094EC"/>
<path d="M51.9515 3.40715C35.1515 11.6738 20.8849 50.4738 5.01821 131.807C-0.981788 162.74 -1.24845 166.34 2.35155 173.674C6.75155 182.474 13.8182 186.874 24.3515 187.54C35.4182 188.34 39.4182 186.207 55.1515 171.674C80.7515 147.807 88.0849 148.207 114.485 174.874C130.485 191.007 139.685 194.607 151.418 189.674C165.552 183.807 173.152 168.607 170.218 152.207C169.418 147.807 165.552 137.54 160.885 128.074C151.018 107.807 149.018 102.34 149.018 95.1405C149.018 85.4072 153.685 76.0738 167.152 59.1405C174.085 50.3405 180.885 40.7405 182.352 37.6738C187.552 27.2738 184.885 16.4738 175.285 8.60715C171.285 5.40715 169.018 4.74048 161.418 4.20715C151.418 3.54048 150.085 4.20715 130.485 17.8071C119.685 25.2738 110.885 27.5405 100.885 25.1405C94.6182 23.6738 92.4849 22.3405 85.0182 14.4738C80.2182 9.54048 74.4849 4.47381 72.0849 3.27381C66.6182 0.607145 57.5515 0.607145 51.9515 3.40715Z" fill="#C094EC"/>
<path d="M672.885 3.14049C652.618 6.87382 630.085 18.0738 614.885 32.0738C601.952 44.0738 591.685 60.3405 586.085 78.2072C581.952 91.0072 582.085 112.874 586.218 125.807C595.418 154.74 614.485 173.274 647.685 185.274C655.418 188.074 658.618 188.34 679.018 188.474C699.152 188.474 702.752 188.074 711.552 185.407C731.818 179.007 746.218 170.74 760.085 157.274C773.552 144.34 779.685 134.874 786.752 116.474C790.485 106.607 791.418 77.6738 788.352 67.0072C779.018 34.3405 750.085 9.27382 714.618 3.14049C700.885 0.740488 686.485 0.740488 672.885 3.14049ZM703.018 77.8072C705.552 79.6738 708.618 83.0072 709.685 85.1405C712.218 89.9405 712.218 99.8072 709.952 105.54C705.685 115.54 694.885 123.674 685.685 123.807C675.952 123.807 667.818 113.407 667.685 101.007C667.685 90.2072 672.485 82.2072 682.352 76.4738C689.685 72.2072 696.352 72.6072 703.018 77.8072Z" fill="#C094EC"/>
<path d="M864.485 3.27384C856.751 6.07384 848.351 13.6738 843.151 22.3405C838.885 29.6738 835.685 39.0072 828.085 65.8072C826.351 72.3405 823.685 81.6738 822.218 86.4738C820.885 91.2738 817.685 104.474 815.018 115.807C812.485 127.14 809.818 139.007 809.018 142.207C808.351 145.274 807.685 152.074 807.685 157.274C807.685 168.474 810.618 175.14 817.951 180.74C822.218 184.074 823.951 184.474 832.218 184.474C847.151 184.34 853.151 179.94 870.351 155.807C882.885 138.207 886.885 133.674 891.951 131.007C896.885 128.474 900.885 128.74 906.351 131.94C913.018 135.94 914.218 137.407 929.551 160.74C937.285 172.34 944.885 182.74 946.618 183.94C954.618 189.54 971.018 191.274 981.685 187.94C988.351 185.674 997.685 177.007 1001.68 169.14C1003.28 165.807 1006.88 157.407 1009.55 150.474C1012.22 143.54 1015.02 136.607 1015.55 135.14C1018.08 129.407 1029.42 93.9405 1031.55 85.8072C1032.22 82.8738 1034.48 74.4738 1036.48 67.1405C1039.42 56.4738 1040.22 50.8738 1040.22 39.1405C1040.35 25.0072 1040.22 24.2072 1036.35 18.4738C1029.02 7.5405 1017.02 3.9405 1003.82 9.00717C994.485 12.4738 988.485 17.5405 981.818 27.6738C973.551 40.0738 965.951 48.4738 960.485 51.0072C957.951 52.2072 952.618 53.1405 948.485 53.1405C942.085 53.1405 940.485 52.6072 936.351 49.0072C933.818 46.7405 927.951 38.7405 923.285 31.2738C913.285 15.0072 904.751 6.20717 896.218 3.27384C888.351 0.607171 871.685 0.607171 864.485 3.27384Z" fill="#C094EC"/>
<path d="M1145.42 3.14048C1106.48 10.2071 1071.82 38.3405 1059.95 72.6071C1041.95 124.874 1073.15 176.207 1130.08 187.674C1139.15 189.54 1164.22 189.54 1173.28 187.674C1198.22 182.607 1219.42 171.007 1236.62 152.874C1261.68 126.207 1269.68 89.9405 1257.42 58.4738C1241.28 17.4071 1194.35 -5.79285 1145.42 3.14048ZM1169.15 74.6071C1178.62 77.8071 1183.68 85.2738 1183.68 95.8072C1183.68 106.474 1177.55 116.074 1167.42 121.274C1152.48 128.874 1138.35 117.14 1140.08 98.4738C1141.02 87.2738 1146.48 79.8071 1157.28 75.1405C1162.75 72.7405 1163.55 72.7405 1169.15 74.6071Z" fill="#C094EC"/>
</svg>
